<mxfile host="Electron" modified="2023-09-05T23:00:12.695Z" agent="Mozilla/5.0 (Windows NT 10.0; Win64; x64) AppleWebKit/537.36 (KHTML, like Gecko) draw.io/21.6.5 Chrome/114.0.5735.243 Electron/25.3.1 Safari/537.36" etag="QmNpGsWaUHCBvqcHNnPc" version="21.6.5" type="device">
  <diagram name="PÃ¡gina-1" id="4y5Si1JphWebjxwjqiaC">
    <mxGraphModel dx="880" dy="532" grid="1" gridSize="10" guides="1" tooltips="1" connect="1" arrows="1" fold="1" page="1" pageScale="1" pageWidth="827" pageHeight="1169" math="0" shadow="0">
      <root>
        <mxCell id="0" />
        <mxCell id="1" parent="0" />
        <mxCell id="nddGwjA_5S4Y3ID1ton0-10" value="" style="rounded=1;whiteSpace=wrap;html=1;" vertex="1" parent="1">
          <mxGeometry x="220" y="260" width="320" height="280" as="geometry" />
        </mxCell>
        <mxCell id="nddGwjA_5S4Y3ID1ton0-1" value="UI" style="rounded=1;whiteSpace=wrap;html=1;" vertex="1" parent="1">
          <mxGeometry x="300" y="100" width="120" height="60" as="geometry" />
        </mxCell>
        <mxCell id="nddGwjA_5S4Y3ID1ton0-2" value="" style="ellipse;shape=cloud;whiteSpace=wrap;html=1;" vertex="1" parent="1">
          <mxGeometry x="300" y="170" width="120" height="80" as="geometry" />
        </mxCell>
        <mxCell id="nddGwjA_5S4Y3ID1ton0-31" style="edgeStyle=orthogonalEdgeStyle;rounded=0;orthogonalLoop=1;jettySize=auto;html=1;" edge="1" parent="1" source="nddGwjA_5S4Y3ID1ton0-3" target="nddGwjA_5S4Y3ID1ton0-4">
          <mxGeometry relative="1" as="geometry" />
        </mxCell>
        <mxCell id="nddGwjA_5S4Y3ID1ton0-3" value="CONTROLLERS" style="rounded=1;whiteSpace=wrap;html=1;" vertex="1" parent="1">
          <mxGeometry x="300" y="270" width="120" height="60" as="geometry" />
        </mxCell>
        <mxCell id="nddGwjA_5S4Y3ID1ton0-21" style="edgeStyle=orthogonalEdgeStyle;rounded=0;orthogonalLoop=1;jettySize=auto;html=1;entryX=0.36;entryY=0.036;entryDx=0;entryDy=0;entryPerimeter=0;" edge="1" parent="1" source="nddGwjA_5S4Y3ID1ton0-4" target="nddGwjA_5S4Y3ID1ton0-20">
          <mxGeometry relative="1" as="geometry" />
        </mxCell>
        <mxCell id="nddGwjA_5S4Y3ID1ton0-22" style="edgeStyle=orthogonalEdgeStyle;rounded=0;orthogonalLoop=1;jettySize=auto;html=1;entryX=0.75;entryY=0;entryDx=0;entryDy=0;" edge="1" parent="1" source="nddGwjA_5S4Y3ID1ton0-4" target="nddGwjA_5S4Y3ID1ton0-16">
          <mxGeometry relative="1" as="geometry" />
        </mxCell>
        <mxCell id="nddGwjA_5S4Y3ID1ton0-4" value="SERVICES" style="rounded=1;whiteSpace=wrap;html=1;" vertex="1" parent="1">
          <mxGeometry x="300" y="360" width="120" height="60" as="geometry" />
        </mxCell>
        <mxCell id="nddGwjA_5S4Y3ID1ton0-6" value="SOLID" style="text;html=1;strokeColor=none;fillColor=none;align=center;verticalAlign=middle;whiteSpace=wrap;rounded=0;" vertex="1" parent="1">
          <mxGeometry x="580" y="70" width="60" height="30" as="geometry" />
        </mxCell>
        <mxCell id="nddGwjA_5S4Y3ID1ton0-7" value="KISS" style="text;html=1;strokeColor=none;fillColor=none;align=center;verticalAlign=middle;whiteSpace=wrap;rounded=0;" vertex="1" parent="1">
          <mxGeometry x="520" y="70" width="60" height="30" as="geometry" />
        </mxCell>
        <mxCell id="nddGwjA_5S4Y3ID1ton0-8" value="DRY" style="text;html=1;strokeColor=none;fillColor=none;align=center;verticalAlign=middle;whiteSpace=wrap;rounded=0;" vertex="1" parent="1">
          <mxGeometry x="650" y="70" width="60" height="30" as="geometry" />
        </mxCell>
        <mxCell id="nddGwjA_5S4Y3ID1ton0-9" value="DTOs" style="rounded=1;whiteSpace=wrap;html=1;" vertex="1" parent="1">
          <mxGeometry x="440" y="180" width="80" height="160" as="geometry" />
        </mxCell>
        <mxCell id="nddGwjA_5S4Y3ID1ton0-11" value="DB" style="shape=cylinder3;whiteSpace=wrap;html=1;boundedLbl=1;backgroundOutline=1;size=15;" vertex="1" parent="1">
          <mxGeometry x="350" y="560" width="80" height="90" as="geometry" />
        </mxCell>
        <mxCell id="nddGwjA_5S4Y3ID1ton0-12" value="Models" style="rounded=1;whiteSpace=wrap;html=1;" vertex="1" parent="1">
          <mxGeometry x="440" y="360" width="80" height="160" as="geometry" />
        </mxCell>
        <mxCell id="nddGwjA_5S4Y3ID1ton0-13" value="&lt;h1&gt;Parecidos pero NO necesariamente iguales !!!!&lt;/h1&gt;" style="text;html=1;strokeColor=none;fillColor=none;spacing=5;spacingTop=-20;whiteSpace=wrap;overflow=hidden;rounded=0;" vertex="1" parent="1">
          <mxGeometry x="610" y="290" width="190" height="120" as="geometry" />
        </mxCell>
        <mxCell id="nddGwjA_5S4Y3ID1ton0-14" value="DATA TRANSFER OBJECTS" style="text;html=1;strokeColor=none;fillColor=none;align=center;verticalAlign=middle;whiteSpace=wrap;rounded=0;" vertex="1" parent="1">
          <mxGeometry x="560" y="210" width="90" height="30" as="geometry" />
        </mxCell>
        <mxCell id="nddGwjA_5S4Y3ID1ton0-15" value="DATA BASE MODELS" style="text;html=1;strokeColor=none;fillColor=none;align=center;verticalAlign=middle;whiteSpace=wrap;rounded=0;" vertex="1" parent="1">
          <mxGeometry x="560" y="430" width="90" height="30" as="geometry" />
        </mxCell>
        <mxCell id="nddGwjA_5S4Y3ID1ton0-19" style="edgeStyle=orthogonalEdgeStyle;rounded=0;orthogonalLoop=1;jettySize=auto;html=1;" edge="1" parent="1" source="nddGwjA_5S4Y3ID1ton0-16" target="nddGwjA_5S4Y3ID1ton0-11">
          <mxGeometry relative="1" as="geometry" />
        </mxCell>
        <mxCell id="nddGwjA_5S4Y3ID1ton0-16" value="Repository" style="rounded=1;whiteSpace=wrap;html=1;" vertex="1" parent="1">
          <mxGeometry x="350" y="457.5" width="80" height="60" as="geometry" />
        </mxCell>
        <mxCell id="nddGwjA_5S4Y3ID1ton0-27" value="" style="edgeStyle=orthogonalEdgeStyle;rounded=0;orthogonalLoop=1;jettySize=auto;html=1;" edge="1" parent="1" source="nddGwjA_5S4Y3ID1ton0-17" target="nddGwjA_5S4Y3ID1ton0-18">
          <mxGeometry relative="1" as="geometry" />
        </mxCell>
        <mxCell id="nddGwjA_5S4Y3ID1ton0-17" value="" style="ellipse;shape=cloud;whiteSpace=wrap;html=1;" vertex="1" parent="1">
          <mxGeometry x="60" y="470" width="120" height="80" as="geometry" />
        </mxCell>
        <mxCell id="nddGwjA_5S4Y3ID1ton0-18" value="EXTERNAL SERVICE" style="rounded=1;whiteSpace=wrap;html=1;" vertex="1" parent="1">
          <mxGeometry x="45" y="580" width="150" height="50" as="geometry" />
        </mxCell>
        <mxCell id="nddGwjA_5S4Y3ID1ton0-23" style="edgeStyle=orthogonalEdgeStyle;rounded=0;orthogonalLoop=1;jettySize=auto;html=1;" edge="1" parent="1" source="nddGwjA_5S4Y3ID1ton0-20" target="nddGwjA_5S4Y3ID1ton0-17">
          <mxGeometry relative="1" as="geometry" />
        </mxCell>
        <mxCell id="nddGwjA_5S4Y3ID1ton0-20" value="ServiceRepository" style="rounded=1;whiteSpace=wrap;html=1;" vertex="1" parent="1">
          <mxGeometry x="230" y="460" width="100" height="55" as="geometry" />
        </mxCell>
        <mxCell id="nddGwjA_5S4Y3ID1ton0-28" value="DTOs" style="rounded=1;whiteSpace=wrap;html=1;" vertex="1" parent="1">
          <mxGeometry x="150" y="370" width="60" height="110" as="geometry" />
        </mxCell>
        <mxCell id="nddGwjA_5S4Y3ID1ton0-29" value="Text" style="text;html=1;strokeColor=none;fillColor=none;align=center;verticalAlign=middle;whiteSpace=wrap;rounded=0;" vertex="1" parent="1">
          <mxGeometry x="390" y="420" width="60" height="30" as="geometry" />
        </mxCell>
        <mxCell id="nddGwjA_5S4Y3ID1ton0-30" value="MAPPING" style="text;html=1;strokeColor=none;fillColor=none;align=center;verticalAlign=middle;whiteSpace=wrap;rounded=0;" vertex="1" parent="1">
          <mxGeometry x="520" y="340" width="60" height="30" as="geometry" />
        </mxCell>
        <mxCell id="nddGwjA_5S4Y3ID1ton0-32" value="&lt;font style=&quot;font-size: 18px;&quot;&gt;ORM EF&lt;/font&gt;" style="text;html=1;strokeColor=none;fillColor=none;align=center;verticalAlign=middle;whiteSpace=wrap;rounded=0;" vertex="1" parent="1">
          <mxGeometry x="60" y="690" width="110" height="30" as="geometry" />
        </mxCell>
      </root>
    </mxGraphModel>
  </diagram>
</mxfile>
